<svg width="180" height="34" viewBox="0 0 180 34" fill="none" xmlns="http://www.w3.org/2000/svg">
<path d="M42.05 16.598C42.05 19.986 43.03 22.6367 44.99 24.55C46.95 26.454 49.3907 27.406 52.312 27.406C53.964 27.406 55.4713 27.0747 56.834 26.412C58.206 25.7493 59.326 24.8113 60.194 23.598L59.088 22.66C58.5 23.5467 57.66 24.284 56.568 24.872C55.476 25.46 54.1647 25.754 52.634 25.754C50.31 25.754 48.4153 24.9327 46.95 23.29C45.4847 21.638 44.7427 19.2627 44.724 16.164C44.7053 13.2053 45.3867 10.9793 46.768 9.486C48.1493 7.98333 50.0253 7.232 52.396 7.232C53.376 7.232 54.3 7.39067 55.168 7.708C56.036 8.016 56.7547 8.464 57.324 9.052L58.724 7.582C57.9213 6.994 56.9553 6.53667 55.826 6.21C54.706 5.88333 53.544 5.72 52.34 5.72C49.344 5.72 46.88 6.75133 44.948 8.814C43.016 10.8673 42.05 13.462 42.05 16.598ZM56.68 8.478L57.59 12.44H58.892V6.182H57.8L56.68 8.478ZM61.3273 16.668C61.3273 19.8787 62.2747 22.4733 64.1693 24.452C66.064 26.4307 68.4767 27.42 71.4073 27.42C74.422 27.42 76.8393 26.3747 78.6593 24.284C80.4793 22.184 81.3893 19.58 81.3893 16.472C81.3893 13.2053 80.47 10.5967 78.6313 8.646C76.7927 6.69533 74.3707 5.72 71.3653 5.72C68.36 5.72 65.9333 6.756 64.0853 8.828C62.2467 10.9 61.3273 13.5133 61.3273 16.668ZM64.0013 16.178C64.0013 13.3407 64.6313 11.1567 65.8913 9.626C67.1607 8.086 68.99 7.316 71.3793 7.316C73.61 7.316 75.388 8.16533 76.7133 9.864C78.048 11.5627 78.7153 13.7887 78.7153 16.542C78.7153 19.6033 78.09 21.932 76.8393 23.528C75.598 25.1147 73.778 25.908 71.3793 25.908C69.186 25.908 67.408 25.0213 66.0453 23.248C64.6827 21.4653 64.0013 19.1087 64.0013 16.178ZM83.5038 27H91.6238V25.852L88.7678 25.348L88.7398 16.458L88.7958 7.624L89.1878 7.358H91.5958C92.7998 7.358 93.6724 7.666 94.2138 8.282C94.7551 8.898 95.0258 9.78933 95.0258 10.956C95.0258 12.272 94.7131 13.3173 94.0878 14.092C93.4718 14.8667 92.4731 15.254 91.0918 15.254H89.1038L87.5778 15.24V16.332C88.0818 16.3693 88.8098 16.4113 89.7618 16.458C90.7231 16.4953 91.5118 16.514 92.1278 16.514C93.6584 16.514 94.9791 15.9913 96.0898 14.946C97.2098 13.8913 97.7698 12.5193 97.7698 10.83C97.7698 9.29 97.3078 8.1 96.3838 7.26C95.4691 6.42 94.0504 6 92.1278 6H83.5038V7.302L86.2478 7.778L86.2758 16.444L86.2478 25.348L83.5038 25.852V27ZM90.9378 16.332L97.1118 26.104L98.0358 27H101.564V25.852C101.05 25.8427 100.472 25.6373 99.8278 25.236C99.1931 24.8253 98.4604 23.99 97.6298 22.73L92.9678 15.268L90.9378 16.332ZM100.791 27H107.721V25.852L105.103 25.432L106.895 19.804L110.731 9.192L114.777 19.86L116.611 25.418L114.231 25.852V27H121.707V25.852L119.341 25.362L116.821 18.74L112.089 5.888H110.381L105.593 19.412L103.339 25.362L100.791 25.852V27ZM105.971 20.448H116.121L115.757 19.048L111.207 19.202L106.461 19.062L105.971 20.448ZM122.387 27H137.549L138.249 21.26H136.863L135.365 25.754H128.379L127.651 25.39L127.623 16.444L127.651 7.778L130.857 7.302V6H122.387V7.302L125.131 7.778L125.159 16.444L125.131 25.404L122.387 25.852V27Z" fill="black"/>
<path d="M149.354 17.5L156.5 10.3536L163.646 17.5L156.5 24.6464L149.354 17.5Z" stroke="black" stroke-width="0.5"/>
<path d="M157.354 17.5L164.5 10.3536L171.646 17.5L164.5 24.6464L157.354 17.5Z" stroke="black" stroke-width="0.5"/>
<path d="M165.354 17.5L172.5 10.3536L179.646 17.5L172.5 24.6464L165.354 17.5Z" stroke="black" stroke-width="0.5"/>
<path d="M0.353554 17.5L7.5 10.3536L14.6464 17.5L7.5 24.6464L0.353554 17.5Z" stroke="black" stroke-width="0.5"/>
<path d="M8.35355 17.5L15.5 10.3536L22.6464 17.5L15.5 24.6464L8.35355 17.5Z" stroke="black" stroke-width="0.5"/>
<path d="M16.3536 17.5L23.5 10.3536L30.6464 17.5L23.5 24.6464L16.3536 17.5Z" stroke="black" stroke-width="0.5"/>
</svg>
